<svg width="69" height="83" viewBox="0 0 69 83" fill="none" xmlns="http://www.w3.org/2000/svg">
<path fill-rule="evenodd" clip-rule="evenodd" d="M55.5538 13.9803C56.476 14.0147 57.3953 13.8585 58.2544 13.5214C59.1134 13.1843 59.8936 12.6735 60.5461 12.021C61.1986 11.3685 61.7095 10.5884 62.0466 9.72947C62.3838 8.87053 62.54 7.95125 62.5056 7.02916C62.55 6.1013 62.4012 5.17434 62.0685 4.30704C61.7358 3.43973 61.2265 2.65101 60.5729 1.99088C59.9193 1.33074 59.1356 0.813595 58.2716 0.472227C57.4076 0.130859 56.4821 -0.0272852 55.5538 0.0078222C54.6197 -0.0373311 53.6865 0.113372 52.8141 0.450252C51.9417 0.787133 51.1494 1.30274 50.4881 1.96396C49.8268 2.62518 49.3112 3.41739 48.9743 4.2897C48.6374 5.16201 48.4866 6.09514 48.5318 7.02916C48.4967 7.95741 48.6548 8.88283 48.9962 9.74675C49.3376 10.6107 49.8548 11.3942 50.515 12.0478C51.1752 12.7013 51.964 13.2105 52.8314 13.5432C53.6988 13.8759 54.6259 14.0247 55.5538 13.9803ZM55.5538 2.68295C57.8851 2.68295 59.4018 4.38913 59.4018 7.00809C59.4018 9.62705 57.871 11.3332 55.5538 11.3332C53.2365 11.3332 51.6917 9.62705 51.6917 7.02916C51.6917 4.43126 53.2084 2.68295 55.5538 2.68295ZM27.6835 11.2009H33.4204L34.4878 13.6937H37.7319L31.6158 0.302755H29.5724L23.4211 13.6937H26.6231L27.6835 11.2009ZM32.4514 8.89066L30.58 4.4891L28.7087 8.89066H32.4514ZM14.1029 11.6994L10.7113 6.43295V13.6937H7.63567V0.295726H9.79844L14.8894 8.24463L19.9874 0.295726H22.1501V13.6937H19.0745V6.43295L15.6829 11.6994H14.1029ZM40.4846 13.6937H43.6024V8.93278L48.7635 0.295726H45.3719L42.0646 6.14505L38.7572 0.295726H35.3234L40.4846 8.93278V13.6937ZM15.8584 32.553V19.155H18.9832V29.9689H25.8015V32.553H15.8584ZM31.2366 19.155H28.1188V32.546H31.2366V19.155ZM11.3784 28.037L14.124 29.1183C13.0777 31.4704 10.7113 32.8396 7.81827 32.8607C3.27504 32.8607 0.17834 29.35 0.880539 24.5825C1.15527 23.1824 1.84557 21.8976 2.86143 20.8956C3.87728 19.8936 5.17153 19.221 6.57538 18.9655C10.0021 18.502 12.9092 19.9555 14.0608 22.6727L11.3152 23.754C11.0309 23.0663 10.5409 22.4834 9.91239 22.0849C9.28387 21.6865 8.54754 21.492 7.80423 21.5282C5.44484 21.5282 3.91404 23.2555 3.91404 25.8744C3.91404 28.4934 5.43079 30.1996 7.80423 30.1996C8.54666 30.2306 9.28173 30.0419 9.91748 29.6572C10.5532 29.2726 11.0614 28.709 11.3784 28.037ZM52.6186 19.155H49.5008V32.546H52.6186V19.155ZM63.8231 29.6188C64.454 29.2447 64.9624 28.6951 65.2862 28.037L68.0318 29.1394C66.9715 31.4915 64.6051 32.8607 61.712 32.8607C57.1688 32.8607 54.0721 29.35 54.7743 24.5825C55.049 23.1824 55.7393 21.8976 56.7552 20.8956C57.771 19.8936 59.0653 19.221 60.4691 18.9654C63.9169 18.502 66.8241 19.9554 67.9476 22.6376L65.202 23.7189C64.9176 23.0312 64.4277 22.4483 63.7991 22.0498C63.1706 21.6514 62.4343 21.4569 61.691 21.4931C59.3597 21.4931 57.8429 23.1993 57.8429 25.8183C57.8429 28.4372 59.3597 30.1434 61.7331 30.1434C62.4659 30.1751 63.1921 29.9928 63.8231 29.6188ZM36.3135 19.155H34.235V32.553H37.3106V24.3794L44.4239 32.553H46.5024V19.155H43.4268V27.3286L36.3135 19.155ZM38.6097 50.4491V41.876H61.7893V54.9568C61.7893 62.8277 57.9834 67.876 50.1819 70.3405C49.2409 70.0477 48.3192 69.6959 47.4223 69.2873V69.5401C46.2707 76.2525 42.0856 80.697 34.7265 83C27.3745 80.697 23.1824 76.2525 22.0307 69.5401C22.0307 69.5401 21.9956 69.4488 21.9956 69.2873C21.0987 69.6959 20.177 70.0477 19.236 70.3405C11.4346 67.876 7.62863 62.8207 7.62863 54.9568V41.869H30.8434V50.4491H38.6097ZM19.2132 67.579C12.9101 65.0515 10.3742 61.3098 10.3742 54.4442V45.9695C10.3742 45.6138 10.5155 45.2727 10.7671 45.0212C11.0186 44.7697 11.3597 44.6284 11.7154 44.6284H26.7636C27.1193 44.6284 27.4604 44.7697 27.7119 45.0212C27.9635 45.2727 28.1048 45.6138 28.1048 45.9695V50.4491H21.7077V65.4747V66.4086C20.9017 66.8509 20.0685 67.2418 19.2132 67.579ZM28.0978 54.4512V53.2015H25.8086C25.4529 53.2015 25.1117 53.3427 24.8602 53.5942C24.6087 53.8457 24.4674 54.1868 24.4674 54.5425V64.4847C27.0093 62.1326 28.0978 58.966 28.0978 54.4512ZM34.7265 80.2546C40.9972 77.7621 44.1009 74.1812 44.8031 68.199C44.8031 68.199 44.8171 68.0656 44.8452 67.8269C40.6671 64.9973 38.6097 60.7424 38.6097 54.9638V53.2085H30.8504V54.9638C30.8504 60.7424 28.828 65.0183 24.6148 67.8269C24.657 68.0656 24.657 68.199 24.657 68.199C25.3592 74.1812 28.4559 77.7621 34.7265 80.2546ZM41.3904 54.4512C41.3904 58.966 42.4788 62.1326 45.0208 64.4847V54.5425C45.0208 54.3664 44.9861 54.192 44.9187 54.0293C44.8513 53.8666 44.7525 53.7188 44.6279 53.5942C44.5034 53.4697 44.3555 53.3709 44.1928 53.3035C44.0301 53.2361 43.8557 53.2015 43.6796 53.2015H41.3904V54.4512ZM50.203 67.5952C56.5368 65.0675 59.0648 61.3251 59.0648 54.4512V45.9835C59.0648 45.6303 58.9254 45.2913 58.6769 45.0402C58.4284 44.7891 58.0909 44.6461 57.7376 44.6424H42.7035C42.3478 44.6424 42.0067 44.7837 41.7551 45.0352C41.5036 45.2867 41.3623 45.6278 41.3623 45.9835V50.4631H47.7032V65.4888V66.4226C48.5109 66.8658 49.3458 67.2575 50.203 67.5952Z" fill="black"/>
</svg>
